<?xml version="1.0" encoding="utf-8"?>
<!-- Generator: Adobe Illustrator 20.1.0, SVG Export Plug-In . SVG Version: 6.00 Build 0)  -->
<svg version="1.1" id="_x3C_Layer_x3E_" xmlns="http://www.w3.org/2000/svg" xmlns:xlink="http://www.w3.org/1999/xlink" x="0px"
	 y="0px" viewBox="0 0 1296 1296" style="enable-background:new 0 0 1296 1296;" xml:space="preserve">
<style type="text/css">
	.st0{fill:#FFFFFF;}
</style>
<g>
	<g>
		<polygon class="st0" points="639.9,611.4 639.9,618.5 653.2,618.5 653.2,630.7 660,630.7 659.9,611.4 		"/>
		<rect x="653.2" y="636.5" class="st0" width="6.8" height="20.4"/>
		<polygon class="st0" points="653.2,675.9 640,675.9 640,682.7 660,682.7 660,662.7 653.2,662.7 		"/>
		<rect x="613.8" y="675.9" class="st0" width="20.8" height="6.8"/>
		<polygon class="st0" points="595.4,662.4 588.6,662.5 588.6,682.7 608.1,682.7 608,675.9 595.3,675.9 		"/>
		<rect x="588.6" y="636.5" class="st0" width="6.8" height="20.4"/>
		<polygon class="st0" points="595.6,630.8 595.6,618.6 608.7,618.7 608.7,611.4 588.7,611.4 588.7,630.8 		"/>
		<polygon class="st0" points="647.3,623.9 626.7,623.9 626.7,630.1 640,630.1 640,644.8 647.3,644.8 		"/>
		<polygon class="st0" points="647.3,650.6 640,650.6 640,662.6 626.9,662.7 626.9,670 647.3,670 		"/>
		<rect x="613.8" y="636.5" class="st0" width="20.8" height="20.4"/>
		<polygon class="st0" points="601.2,669.8 621.6,669.9 621.4,662.7 608.5,662.7 608.5,650.6 601.2,650.6 		"/>
		<polygon class="st0" points="621.6,623.9 601.2,623.9 601.2,644.8 608.5,644.8 608.4,630.7 621.6,630.7 		"/>
		<rect x="613.9" y="611.3" class="st0" width="20.7" height="7.3"/>
	</g>
	<g>
		<path class="st0" d="M722.6,616.2c-2.4,4.7-4.8,9.4-7.5,14c-4.5-3.5-10.3-6-16.2-3.8c-1.6,0.4-3.3,2.1-3.8,3.8
			c-0.9,2.9,1.3,4.9,3.4,6.4c9.9,3.8,24,5.5,26.8,18.5c0.6,8.2,0,17.3-6.8,22.6c-10,9-27,8.8-38.4,3.1c-2.4-1-4.6-2.7-6.8-4.2
			c2.7-4.8,5.3-9.6,7.9-14.3c5.4,5.2,12.3,8.1,20,6.8c2.1-0.8,4.7-2.4,5.3-4.9c0.7-3.1-0.8-5.7-3.4-7.2c-9.4-4.7-24.2-4.6-26.8-17.7
			c-0.7-7.9,0.4-16.1,6-21.9C692.8,606.4,711.2,610,722.6,616.2z"/>
		<path class="st0" d="M833.4,612.1c5.7,12.1,9.4,25.1,14.8,37.3c5.3-12,10.4-24.9,15.8-37.3h17.6l11,71l-18.1-0.1
			c-1.9-13.5-3.8-26.9-5.7-40.4c-6,13.4-11.4,26.8-17.1,40.2c-2.6,0.1-5.3,0-7.8,0l-15.9-40.6c-2.6,13.2-4.1,27.3-6.1,40.7l-18,0
			v-3.1l11.8-67.9h0.3H833.4z"/>
		<polygon class="st0" points="940.9,627.6 919.4,627.5 919.5,639.6 939,639.6 939,655 919.4,655 919.5,682.9 901,683 901,612.1 
			940.9,612.1 		"/>
		<path class="st0" d="M969.1,654.7c-0.2,6.1,4,12.2,8.4,13.5c4.8,0.7,10.2,0.9,13.6-3c3.4-3.9,2.8-6.2,3.3-11.3l0-41.5l18.9,0
			c0,14.3-0.2,41.5-0.2,43.2c0,6.7-1.2,9.9-2.6,13.3c-5,12.4-18.2,16.2-30.9,15.9c-9.6-0.6-18.8-3.7-24.5-12.1
			c-2.8-5.2-4.3-10.9-4.2-17.4l0.4-43.3h17.7L969.1,654.7z"/>
		<polygon class="st0" points="1077,656.1 1077.1,612.1 1095.1,612.1 1095.1,682.9 1077.4,683 1043.4,639.6 1043.5,682.9 1025,683 
			1025,612.1 1042.7,612.1 		"/>
		<polygon class="st0" points="1218.3,627.6 1197.2,627.5 1197.2,639.4 1218.7,639.4 1218.7,654.7 1196.8,654.7 1196.9,667.1 
			1218.3,667.1 1218.3,682.9 1178.7,683 1178.7,612.1 1218.3,612.1 		"/>
		<polygon class="st0" points="1273.1,627.6 1258.7,627.5 1258.7,682.9 1240.2,683 1240.3,627.6 1225.2,627.5 1225.2,612.1 
			1273,612.1 		"/>
		<path class="st0" d="M1157.3,620.8c-7.6-7.6-24.4-8.7-36.2-8.7h-13.2V683c0,0,10.7,0,16.1,0.1c6.4,0.1,12.6-0.1,18.5-1.2
			c12-2,22.9-13.9,26.1-25.2C1171.6,643.2,1167.8,629.9,1157.3,620.8z M1149,655.4c-1.9,5.9-7.5,10.5-13.6,11.3
			c-2.8,0.7-6,0.2-9,0.4v-39.2c7.2-0.2,14.2,0.5,18.8,5.7C1150.4,639.2,1151.1,648.1,1149,655.4z"/>
		<path class="st0" d="M775,612.1h-19.6L728.3,683l19.8,0l4.3-12.5l25.4,0c1.6,4,3,8.7,5.2,12.5l19.3,0l-0.4-0.8L775,612.1z
			 M758.1,656.2l7.2-21.5l7.1,21.5H758.1z"/>
	</g>
	<g>
		<path class="st0" d="M76.7,617.6c-2.4,4.7-4.7,9.3-7.5,13.9c-4.4-3.5-10.3-5.8-16-3.7c-1.6,0.5-3.3,2.2-3.7,3.7
			c-0.9,3,1.2,5,3.3,6.4c9.8,3.7,23.7,5.4,26.5,18.3c0.5,8.2-0.1,17.1-6.8,22.4c-9.9,8.8-26.8,8.7-38.1,3c-2.4-1-4.6-2.6-6.8-4.1
			c2.6-4.7,5.2-9.4,7.9-14.2c5.4,5.1,12.2,8.1,19.8,6.7c2.2-0.8,4.7-2.4,5.3-4.8c0.6-3.1-0.9-5.7-3.4-7.1
			c-9.3-4.7-23.9-4.5-26.5-17.6c-0.7-7.9,0.4-15.9,5.9-21.6C47.1,608,65.3,611.5,76.7,617.6z"/>
		<polygon class="st0" points="130.9,628.8 116.7,628.8 116.8,683.7 98.3,683.8 98.3,628.9 83.4,628.8 83.4,613.6 130.9,613.6 		"/>
		<path class="st0" d="M156.3,659.1c0.5,4.2,3.2,8.8,7.5,10.1c4.7,0.7,10.2,0.8,13.5-3c3.3-3.9,2.8-9.4,3.3-14.6l-0.1-38.1h18.3
			v43.6c0.5,7.7-1.3,10.3-2.1,12.8c-5,12.4-18.1,16-30.7,15.7c-9.5-0.5-18.6-3.6-24.3-12c-2.8-5.1-4.3-10.8-4.1-17.1l0-43h18.5
			L156.3,659.1z"/>
		<polygon class="st0" points="320.7,628.5 299.1,628.5 299.1,640.4 319.5,640.4 319.6,655.8 299.1,655.8 299.1,668.1 320.4,668.1 
			320.4,683.7 281.1,683.8 281.1,613.6 320.7,613.6 		"/>
		<polygon class="st0" points="383.9,656.6 383.8,613.6 401.8,613.6 401.9,683.7 384.2,683.8 350.6,640.8 350.4,683.7 332.3,683.8 
			332.3,613.6 349.9,613.6 		"/>
		<polygon class="st0" points="457.1,628.5 442.4,628.5 442.4,683.7 424.3,683.8 424.2,628.9 409.3,628.8 409.3,613.6 457.1,613.6 
					"/>
		<polygon class="st0" points="503.5,628.9 482.1,628.9 482.2,640.4 502.7,640.5 502.7,655.8 482.2,655.8 482.2,668.1 503.8,668.1 
			503.8,683.8 464.3,683.8 464.3,613.6 503.5,613.6 		"/>
		<path class="st0" d="M551.7,655c2.9-1.3,6.2-1.6,8.6-4c6.1-5.4,7.1-13.3,6.4-20.9c-3.7-14.4-23.1-16.4-36.9-16.4h-14.3v70.2
			l18.3,0l0-26.9l17.6,26.9l22.3,0L551.7,655z M546.1,641.6c-3.3,3-7.7,3.1-12.4,3v-16.8c5,0.6,11.6-0.5,13.5,5.2
			C548,635.8,548.5,638.7,546.1,641.6z"/>
		<path class="st0" d="M259.8,622.1c-12.4-12.4-31.9-7.4-49-8.6v70.2c11.4-0.4,23.7,0.9,34.4-1.1c11.8-2.1,22.7-13.8,25.8-25.1
			C274,644.4,270.2,631.2,259.8,622.1z M251.6,656.5c-1.8,5.8-7.5,10.4-13.4,11.2c-2.8,0.6-6,0.2-9,0.3v-38.9
			c7.1-0.2,14.1,0.5,18.7,5.6C253,640.4,253.7,649.3,251.6,656.5z"/>
	</g>
</g>
</svg>
